# xmcd
#
# Track frame offsets:
#	150
#	7360
#	15300
#	24217
#	31265
#	38945
#	48682
#	56312
#	66260
#	76140
#	80382
#	89997
#	95640
#	103060
#	111712
#	119180
#	132847
#	143120
#	151825
#	162125
#	165380
#	175232
#	182780
#	193312
#	202387
#
# Disc length: 2795 seconds
#
# Revision: 0
# Processed by: cddbd v1.5.2PL0 Copyright (c) Steve Scherf et al.
# Submitted via: EasyCDDAExtractor 10.0.3.1
#
DISCID=650ae919
DTITLE=Various Artist - 25 Bluegrass Classics - Songs of Rural America
DYEAR=2002
DGENRE=Bluegrass
TTITLE0=Red Smiley - Roll On Buddy
TTITLE1=Bobby Smith - Whoa Mule
TTITLE2=Earl Tyalor - Pretty Polly
TTITLE3=Don Reno - Red Rockin' Chair
TTITLE4=Raymond Fairchild - Flop Eared Mule
TTITLE5=Ernie and Mack - Mule Skinner Blues
TTITLE6=Red Smiley - Ain't Nobody Gonna Miss Me When I'm Gone
TTITLE7=Mac Martin - This Rambler's Ramblin
TTITLE8=Hylo Brown - Preacher and The Bear
TTITLE9=Vassar Clements - Fast Travellin'
TTITLE10=Log Cabin Boys - Cotton Eyed Joe
TTITLE11=Red Smiley - Shady Grove
TTITLE12=Ernie and Mack - East Virginia Blues
TTITLE13=Don Reno and Bill Harrell - Nobody's Business
TTITLE14=Raymond Fairchild - Kicking Mule
TTITLE15=Hylo Brown - Girl In The Blue Velvet Band
TTITLE16=Ernie and Mack - Ruby
TTITLE17=Jim Greer - Jimmy Brown The Newsboy
TTITLE18=Frosty Mountain Boys - I Ain't Gonna Work Here Tomorrow
TTITLE19=Hylo Brown - Banjo Signal
TTITLE20=Earl Taylor and Jim McCall - Poor Rebel Soldier
TTITLE21=Ernie and Mack - Cindy
TTITLE22=Red Smiley - Banks Of The Ohio
TTITLE23=Various Artist - Poor Ellen Smith
TTITLE24=Hylo Brown - Fireball Mail
EXTD=
EXTT0=
EXTT1=
EXTT2=
EXTT3=
EXTT4=
EXTT5=
EXTT6=
EXTT7=
EXTT8=
EXTT9=
EXTT10=
EXTT11=
EXTT12=
EXTT13=
EXTT14=
EXTT15=
EXTT16=
EXTT17=
EXTT18=
EXTT19=
EXTT20=
EXTT21=
EXTT22=
EXTT23=
EXTT24=
PLAYORDER=
